<svg width="422" height="179" viewBox="0 0 422 179" fill="none" xmlns="http://www.w3.org/2000/svg">
<path d="M189.161 130.965L198.178 126.064C208.521 120.442 220.978 120.313 231.435 125.72L236.184 128.175C246.197 133.352 258.107 133.311 268.084 128.066L272.755 125.61C282.863 120.296 294.992 120.553 304.865 126.29C315.519 132.48 328.772 132.044 338.995 125.166L347.197 119.648C355.913 113.784 367.21 113.398 376.306 118.655C391.55 127.465 410.988 119.232 415.268 102.154L421.409 77.6475C422.772 72.2083 422.789 66.5187 421.458 61.0716L415.078 34.9622C410.902 17.8685 391.48 9.57553 376.245 18.3802C367.186 23.6153 355.936 23.2315 347.255 17.3911L339.377 12.0909C329.219 5.25662 315.808 5.77248 306.205 13.3668C296.017 21.4237 281.727 21.7671 271.164 14.2091L270.621 13.8202C259.788 6.06978 245.072 6.68326 234.923 15.3084L231.203 18.4688C222.106 26.2 209.731 28.8405 198.271 25.4961L174.567 18.5791C156.954 13.4394 138.399 22.9847 132.339 40.3027L104.069 121.089C103.344 123.162 104.684 125.383 106.856 125.707L167.59 134.775C175.004 135.882 182.575 134.545 189.161 130.965Z" fill="white" stroke="#52A3D0"/>
<path d="M22.3328 119.548C20.9192 103.118 33.8744 89 50.365 89H58.4474C78.0826 89 94 104.917 94 124.553V125.141C94 134.706 90.2088 143.88 83.4571 150.654L80.8043 153.316C75.4733 158.665 68.8879 162.594 61.6489 164.745L39.4789 171.332C31.8107 173.61 23.5094 171.734 17.5662 166.38V166.38C7.94861 157.715 7.39 142.817 16.3317 133.456L18.4602 131.227C21.3049 128.249 22.7324 124.192 22.3794 120.089L22.3328 119.548Z" fill="#52A3D0"/>
<ellipse rx="12.5534" ry="10.2962" transform="matrix(0.969299 -0.245885 0.495999 0.868323 55.5493 113.791)" fill="#FFFCF4"/>
<ellipse rx="7.40327" ry="5.74673" transform="matrix(0.969299 -0.245885 0.495999 0.868323 55.4305 113.583)" fill="#52A3D0"/>
<ellipse rx="5.47198" ry="4.31004" transform="matrix(0.969299 -0.245885 0.495999 0.868323 55.4305 113.583)" fill="#222222"/>
<ellipse rx="9.02153" ry="10.3397" transform="matrix(0.83351 -0.552504 0.756077 0.654482 80.3935 108.547)" fill="#FFFCF4"/>
<ellipse rx="5.32039" ry="5.77102" transform="matrix(0.83351 -0.552504 0.756077 0.654482 80.8589 108.39)" fill="#52A3D0"/>
<ellipse rx="3.93246" ry="4.32826" transform="matrix(0.83351 -0.552504 0.756077 0.654482 80.859 108.39)" fill="#222222"/>
<path d="M26.9174 81.4269C27.0882 81.2818 27.4444 81.4229 27.45 81.638V81.638C27.5382 84.9825 30.6512 88.2736 34.9345 89.5507L39.6198 90.9476C40.0582 91.0783 40.3727 90.7426 40.104 90.4308L39.6647 89.9212C36.5653 86.3252 36.9293 81.9808 40.5224 79.6844L52.4713 72.0475C52.9114 71.7663 53.6659 72.2031 53.5027 72.6447L52.3619 75.7328C51.078 79.2082 50.5041 82.9109 50.6585 86.7232V86.7232C50.6787 87.2223 50.7772 87.7292 50.952 88.2328L52.0912 91.5172C52.4733 92.6189 51.9477 93.6582 50.7804 94.1089L29.1708 102.453C28.2866 102.795 27.1595 102.747 26.1425 102.326L22.6282 100.87C21.7163 100.492 20.7103 100.413 19.8687 100.653L13.8624 102.365C13.6497 102.426 13.3801 102.309 13.2998 102.121V102.121C11.9969 99.0723 14.1358 96.2819 17.9609 96.0399L23.674 95.6785C24.0575 95.6543 24.1372 95.2778 23.8042 95.0634V95.0634C19.8317 92.5046 18.9052 88.2302 21.7918 85.7791L26.9174 81.4269Z" fill="#52A3D0"/>
<path d="M71.5814 121.199C72.1874 118.72 74.7352 116.936 77.2721 117.213L89.1669 118.515C91.7037 118.793 93.2689 121.028 92.6629 123.507V123.507C92.0568 125.986 89.509 127.77 86.9722 127.493L75.0774 126.191C72.5406 125.913 70.9753 123.678 71.5814 121.199V121.199Z" fill="#D8AAAA"/>
<path d="M71.6859 120.772C72.2342 118.529 74.5394 116.914 76.8346 117.165L87.049 118.284C89.3442 118.535 90.7604 120.557 90.2121 122.8V122.8C89.6637 125.043 87.3586 126.657 85.0633 126.406L74.849 125.288C72.5537 125.036 71.1376 123.014 71.6859 120.772V120.772Z" fill="#FECDCD"/>
<rect x="71" y="118" width="8" height="5" rx="2.5" fill="#D8AAAA"/>
<path d="M80.8206 114.008L86.805 114.101C96.4264 114.251 101.162 124.229 95.4766 132.374V132.374L93.1645 128.243C91.5105 125.288 88.1697 123.646 84.4645 123.967V123.967C82.3693 124.149 80.3897 123.518 78.9728 122.218L72.1966 115.999V115.999C74.6522 115.046 77.1947 114.416 79.7484 114.128L80.8206 114.008Z" fill="#FFE193"/>
<path d="M80.8206 114.008L86.805 114.101C96.4264 114.251 101.162 124.229 95.4766 132.374V132.374L93.1645 128.243C91.5105 125.288 88.1697 123.646 84.4645 123.967V123.967C82.3693 124.149 80.3897 123.518 78.9728 122.218L72.1966 115.999V115.999C74.6522 115.046 77.1947 114.416 79.7484 114.128L80.8206 114.008Z" fill="#FFE193"/>
<path d="M80.9429 130.029C76.3179 131.036 71.4883 129.735 68.8996 126.783V126.783C66.91 124.515 66.8772 121.517 68.8152 119.094L69.7188 117.964L72.1966 115.999L72.7912 116.463C73.1499 116.742 73.3969 117.094 73.5053 117.481L73.7171 118.237C74.2627 120.183 75.6816 121.898 77.7351 123.092L78.0882 123.298C78.6009 123.596 79.0725 123.932 79.4962 124.302V124.302C81.6553 126.188 84.8076 127.249 88.1652 127.221L91.8068 127.19C92.1645 127.187 92.2171 127.574 91.8693 127.649L80.9429 130.029Z" fill="#FFE193"/>
<path d="M80.9429 130.029C76.3179 131.036 71.4883 129.735 68.8996 126.783V126.783C66.91 124.515 66.8772 121.517 68.8152 119.094L69.7188 117.964L72.1966 115.999L72.7912 116.463C73.1499 116.742 73.3969 117.094 73.5053 117.481L73.7171 118.237C74.2627 120.183 75.6816 121.898 77.7351 123.092L78.0882 123.298C78.6009 123.596 79.0725 123.932 79.4962 124.302V124.302C81.6553 126.188 84.8076 127.249 88.1652 127.221L91.8068 127.19C92.1645 127.187 92.2171 127.574 91.8693 127.649L80.9429 130.029Z" fill="#FFE193"/>
<rect x="55" y="110" width="3" height="2" rx="1" fill="#FFFCF4"/>
<rect x="81" y="105" width="3" height="2" rx="1" fill="#FFFCF4"/>
<path d="M53.7818 129.251C57.5478 126.469 62.8084 126.988 65.9578 130.453L67.6712 132.338C69.727 134.599 72.8441 135.574 75.8223 134.887L80.6987 133.762C84.9914 132.771 88.7122 136.863 87.3191 141.043V141.043C86.7762 142.671 85.9886 144.208 84.9835 145.6L83.9141 147.08C81.3189 150.674 78.2082 153.865 74.6824 156.551L74.5499 156.652C71.2013 159.204 67.4972 161.251 63.5554 162.729V162.729C59.5511 164.231 55.3093 165 51.0327 165L50.0346 165C46.0935 165 42.555 162.585 41.1188 158.915L40.4023 157.084C39.4997 154.777 39.4853 152.217 40.3619 149.901L42.576 144.049C44.8112 138.142 48.7017 133.004 53.7818 129.251V129.251Z" fill="#8AC7E6"/>
</svg>